PathFileType	3	(X/Y/Z)	dance_move_1__view2_aligned.trc
DataRate	CameraRate	NumFrames	NumMarkers	Units	OrigDataRate	OrigDataStartFrame	OrigNumFrames
100.0	100.0	18	19	mm	100.0	689	890
Frame#	Time	pelvis			neck			head			hip_left			hip_right			knee_left			knee_right			ankle_left			ankle_right			heel_left			heel_right			toe_left			toe_right			shoulder_left			shoulder_right			elbow_left			elbow_right			wrist_left			wrist_right			
		X1	Y1	Z1	X2	Y2	Z2	X3	Y3	Z3	X4	Y4	Z4	X5	Y5	Z5	X6	Y6	Z6	X7	Y7	Z7	X8	Y8	Z8	X9	Y9	Z9	X10	Y10	Z10	X11	Y11	Z11	X12	Y12	Z12	X13	Y13	Z13	X14	Y14	Z14	X15	Y15	Z15	X16	Y16	Z16	X17	Y17	Z17	X18	Y18	Z18	X19	Y19	Z19	
689	6.88000	146.725260	773.770522	151.388782	169.813671	1277.281343	-124.331905	156.408858	1328.343186	-282.537331	69.949607	774.061867	163.429366	223.501248	773.479166	139.348254	-151.673749	499.567393	-62.287204	262.228805	476.780128	-143.801765	-129.978320	124.663310	58.168446	265.275033	108.275010	-7.475128	-116.769444	79.364786	94.218842	262.766624	64.783144	32.126393	-174.212783	68.365554	-117.432567	275.035814	49.736079	-185.175505	-7.573492	1264.513467	-74.456115	340.782576	1211.860762	-101.903400	-125.726263	998.670394	-96.655827	444.938686	936.895577	-116.843541	-195.648774	745.592772	-176.405470	465.093187	683.480714	-223.815433
690	6.89000	147.279361	774.320377	152.152844	170.253491	1277.740502	-124.205873	156.640642	1328.398436	-282.463494	70.485233	774.648845	164.456174	224.073870	773.991897	139.849581	-152.567497	499.991739	-60.465864	260.564399	477.245040	-143.488686	-129.985526	124.407605	58.551712	264.050075	108.535796	-7.774353	-116.573409	78.958165	94.453302	261.725896	64.982582	31.764337	-174.613505	68.509427	-117.262903	272.798294	50.317786	-185.608851	-7.209951	1265.279578	-74.052045	341.267690	1212.064112	-102.154708	-125.339845	999.518591	-96.340893	444.865068	936.817918	-116.775117	-196.226689	746.232193	-176.185221	465.057303	683.187374	-223.038320
691	6.90000	147.833461	774.870233	152.916906	170.693312	1278.199660	-124.079841	156.872426	1328.453687	-282.389657	71.020859	775.235824	165.482981	224.646492	774.504629	140.350908	-153.461244	500.416085	-58.644524	258.899993	477.709952	-143.175607	-129.992732	124.151899	58.934978	262.825117	108.796582	-8.073578	-116.377375	78.551543	94.687762	260.685168	65.182019	31.402280	-175.014227	68.653299	-117.093238	270.560775	50.899493	-186.042196	-6.846411	1266.045689	-73.647975	341.752803	1212.267463	-102.406017	-124.953426	1000.366788	-96.025960	444.791450	936.740258	-116.706692	-196.804604	746.871614	-175.964971	465.021419	682.894033	-222.261206
692	6.91000	148.387562	775.420089	153.680968	171.133132	1278.658819	-123.953808	157.104210	1328.508937	-282.315820	71.556485	775.822803	166.509788	225.219115	775.017361	140.852235	-154.354992	500.840431	-56.823184	257.235586	478.174864	-142.862528	-129.999938	123.896193	59.318243	261.600158	109.057367	-8.372802	-116.181340	78.144921	94.922222	259.644440	65.381457	31.040223	-175.414948	68.797171	-116.923574	268.323255	51.481200	-186.475542	-6.482871	1266.811800	-73.243905	342.237917	1212.470813	-102.657326	-124.567008	1001.214986	-95.711026	444.717831	936.662598	-116.638267	-197.382519	747.511035	-175.744721	464.985535	682.600693	-221.484093
693	6.92000	146.783717	774.686358	154.124010	169.115113	1277.627803	-123.375720	154.938916	1327.228743	-281.736206	69.990335	775.079421	166.898480	223.577528	774.293281	141.349621	-153.757286	500.486595	-57.813995	255.124142	478.443421	-143.234115	-130.390908	123.855221	58.841658	259.806385	109.416849	-8.595722	-116.874168	78.138977	94.525178	257.907244	65.738929	30.829533	-175.004509	68.774144	-117.437030	266.426489	51.797368	-186.628138	-8.593497	1265.566133	-72.997827	340.320228	1211.858505	-102.613730	-124.355078	999.768743	-96.384462	441.162759	936.000897	-117.709065	-194.473426	746.515413	-176.539779	457.563225	683.324519	-221.548267
694	6.93000	145.179873	773.952626	154.567052	167.097093	1276.596787	-122.797632	152.773622	1325.948549	-281.156592	68.424185	774.336038	167.287171	221.935941	773.569202	141.847007	-153.159580	500.132759	-58.804806	253.012697	478.711979	-143.605702	-130.781879	123.814248	58.365072	258.012612	109.776330	-8.818642	-117.566996	78.133033	94.128135	256.170047	66.096401	30.618842	-174.594070	68.751118	-117.950486	264.529723	52.113537	-186.780734	-10.704123	1264.320466	-72.751750	338.402540	1211.246197	-102.570134	-124.143148	998.322499	-97.057897	437.607686	935.339195	-118.779863	-191.564332	745.519791	-177.334836	450.140915	684.048346	-221.612440
695	6.94000	143.576029	773.218894	155.010094	165.079074	1275.565772	-122.219543	150.608328	1324.668355	-280.576977	66.858036	773.592656	167.675862	220.294355	772.845122	142.344392	-152.561874	499.778922	-59.795617	250.901252	478.980536	-143.977289	-131.172850	123.773275	57.888486	256.218839	110.135811	-9.041562	-118.259824	78.127089	93.731091	254.432850	66.453873	30.408151	-174.183630	68.728091	-118.463942	262.632956	52.429706	-186.933330	-12.814748	1263.074798	-72.505672	336.484852	1210.633889	-102.526537	-123.931218	996.876256	-97.731333	434.052613	934.677494	-119.850660	-188.655238	744.524168	-178.129893	442.718604	684.772172	-221.676614
696	6.95000	141.972185	772.485163	155.453137	163.061054	1274.534756	-121.641455	148.443034	1323.388161	-279.997363	65.291886	772.849274	168.064553	218.652768	772.121043	142.841778	-151.964168	499.425086	-60.786428	248.789808	479.249093	-144.348877	-131.563820	123.732303	57.411900	254.425066	110.495292	-9.264482	-118.952653	78.121145	93.334048	252.695653	66.811345	30.197460	-173.773191	68.705064	-118.977398	260.736190	52.745874	-187.085926	-14.925374	1261.829131	-72.259594	334.567164	1210.021580	-102.482941	-123.719288	995.430013	-98.404768	430.497541	934.015793	-120.921458	-185.746144	743.528546	-178.924950	435.296294	685.495999	-221.740787
697	6.96000	140.368341	771.751431	155.896179	161.043035	1273.503740	-121.063367	146.277741	1322.107967	-279.417749	63.725736	772.105892	168.453245	217.011182	771.396964	143.339164	-151.366462	499.071250	-61.777239	246.678363	479.517651	-144.720464	-131.954791	123.691330	56.935314	252.631292	110.854774	-9.487402	-119.645481	78.115200	92.937005	250.958456	67.168817	29.986770	-173.362752	68.682037	-119.490854	258.839423	53.062043	-187.238522	-17.036000	1260.583464	-72.013516	332.649475	1209.409272	-102.439345	-123.507358	993.983770	-99.078204	426.942468	933.354092	-121.992256	-182.837051	742.532924	-179.720007	427.873984	686.219825	-221.804961
698	6.97000	138.764496	771.017699	156.339221	159.025016	1272.472725	-120.485279	144.112447	1320.827774	-278.838135	62.159587	771.362509	168.841936	215.369595	770.672884	143.836549	-150.768756	498.717414	-62.768049	244.566919	479.786208	-145.092051	-132.345762	123.650357	56.458728	250.837519	111.214255	-9.710322	-120.338309	78.109256	92.539961	249.221259	67.526289	29.776079	-172.952313	68.659010	-120.004310	256.942657	53.378211	-187.391118	-19.146626	1259.337797	-71.767438	330.731787	1208.796964	-102.395749	-123.295428	992.537526	-99.751639	423.387396	932.692391	-123.063054	-179.927957	741.537302	-180.515064	420.451673	686.943652	-221.869134
699	6.98000	137.160652	770.283968	156.782263	157.006996	1271.441709	-119.907190	141.947153	1319.547580	-278.258520	60.593437	770.619127	169.230627	213.728008	769.948805	144.333935	-150.171050	498.363578	-63.758860	242.455474	480.054766	-145.463638	-132.736732	123.609385	55.982143	249.043746	111.573736	-9.933242	-121.031137	78.103312	92.142918	247.484062	67.883761	29.565388	-172.541874	68.635983	-120.517766	255.045890	53.694380	-187.543714	-21.257252	1258.092129	-71.521360	328.814099	1208.184655	-102.352153	-123.083498	991.091283	-100.425074	419.832323	932.030689	-124.133852	-177.018863	740.541680	-181.310121	413.029363	687.667478	-221.933308
700	6.99000	135.556808	769.550236	157.225305	154.988977	1270.410693	-119.329102	139.781859	1318.267386	-277.678906	59.027287	769.875745	169.619319	212.086422	769.224725	144.831321	-149.573344	498.009741	-64.749671	240.344030	480.323323	-145.835225	-133.127703	123.568412	55.505557	247.249973	111.933217	-10.156162	-121.723966	78.097368	91.745874	245.746866	68.241233	29.354697	-172.131434	68.612956	-121.031222	253.149124	54.010548	-187.696310	-23.367878	1256.846462	-71.275282	326.896411	1207.572347	-102.308557	-122.871568	989.645040	-101.098510	416.277251	931.368988	-125.204650	-174.109770	739.546057	-182.105178	405.607053	688.391305	-221.997481
701	7.00000	133.952964	768.816504	157.668347	152.970957	1269.379678	-118.751014	137.616565	1316.987192	-277.099292	57.461138	769.132362	170.008010	210.444835	768.500646	145.328706	-148.975638	497.655905	-65.740482	238.232585	480.591880	-146.206812	-133.518673	123.527440	55.028971	245.456199	112.292699	-10.379082	-122.416794	78.091424	91.348831	244.009669	68.598705	29.144007	-171.720995	68.589930	-121.544678	251.252358	54.326717	-187.848906	-25.478504	1255.600795	-71.029204	324.978723	1206.960039	-102.264961	-122.659638	988.198797	-101.771945	412.722178	930.707287	-126.275448	-171.200676	738.550435	-182.900236	398.184742	689.115131	-222.061655
702	7.01000	132.349119	768.082773	158.111389	150.952938	1268.348662	-118.172926	135.451271	1315.706998	-276.519678	55.894988	768.388980	170.396701	208.803249	767.776566	145.826092	-148.377932	497.302069	-66.731293	236.121140	480.860438	-146.578399	-133.909644	123.486467	54.552385	243.662426	112.652180	-10.602002	-123.109622	78.085480	90.951787	242.272472	68.956177	28.933316	-171.310556	68.566903	-122.058134	249.355591	54.642885	-188.001502	-27.589130	1254.355127	-70.783127	323.061034	1206.347731	-102.221365	-122.447708	986.752553	-102.445381	409.167105	930.045586	-127.346245	-168.291582	737.554813	-183.695293	390.762432	689.838958	-222.125828
703	7.02000	129.998063	766.531672	158.519003	147.024363	1266.382086	-117.308287	131.363609	1313.950133	-275.452013	53.605267	766.754292	170.589121	206.390856	766.309053	146.448897	-146.688729	496.368393	-69.655537	233.494868	480.650452	-147.545811	-133.370318	123.552454	53.874077	241.291215	112.741754	-10.755766	-123.024102	78.316677	90.536310	239.954689	69.106076	28.876266	-169.436053	68.378393	-122.633589	246.737580	54.381383	-188.030060	-31.463596	1251.094073	-70.639851	319.336871	1205.713008	-101.764068	-121.736198	982.717010	-103.512816	404.823806	929.599326	-128.166190	-162.441633	734.305647	-184.928100	381.720823	691.089515	-222.580477
704	7.03000	127.647006	764.980572	158.926616	143.095788	1264.415510	-116.443648	127.275947	1312.193268	-274.384349	51.315546	765.119604	170.781542	203.978464	764.841540	147.071702	-144.999525	495.434716	-72.579782	230.868596	480.440466	-148.513222	-132.830992	123.618441	53.195770	238.920003	112.831329	-10.909530	-122.938582	78.547875	90.120833	237.636906	69.255975	28.819215	-167.561550	68.189883	-123.209044	244.119569	54.119881	-188.058618	-35.338061	1247.833019	-70.496575	315.612708	1205.078286	-101.306771	-121.024687	978.681466	-104.580250	400.480507	929.153066	-128.986135	-156.591684	731.056481	-186.160906	372.679215	692.340072	-223.035127
705	7.04000	125.295949	763.429472	159.334229	139.167213	1262.448933	-115.579009	123.188285	1310.436402	-273.316685	49.025825	763.484917	170.973962	201.566071	763.374027	147.694507	-143.310322	494.501040	-75.504026	228.242324	480.230481	-149.480633	-132.291666	123.684428	52.517462	236.548791	112.920903	-11.063294	-122.853062	78.779073	89.705355	235.319124	69.405874	28.762165	-165.687047	68.001373	-123.784499	241.501558	53.858378	-188.087176	-39.212527	1244.571965	-70.353299	311.888545	1204.443564	-100.849475	-120.313177	974.645922	-105.647685	396.137207	928.706805	-129.806079	-150.741735	727.807315	-187.393713	363.637606	693.590629	-223.489776
706	7.05000	122.944892	761.878371	159.741843	135.238638	1260.482357	-114.714370	119.100623	1308.679537	-272.249021	46.736104	761.850229	171.166382	199.153678	761.906514	148.317312	-141.621119	493.567364	-78.428271	225.616052	480.020495	-150.448045	-131.752340	123.750415	51.839154	234.177580	113.010477	-11.217058	-122.767542	79.010271	89.289878	233.001341	69.555773	28.705115	-163.812544	67.812863	-124.359954	238.883546	53.596876	-188.115734	-43.086992	1241.310911	-70.210024	308.164382	1203.808842	-100.392178	-119.601667	970.610379	-106.715120	391.793908	928.260545	-130.626024	-144.891786	724.558149	-188.626520	354.595997	694.841186	-223.944425
